HIERARCHY
ROOT hips
{
	OFFSET -0.003675 0.299928 -0.021708
	CHANNELS 6 Xposition Yposition Zposition Xrotation Yrotation Zrotation
	JOINT LowerBack
	{
		OFFSET 0.000919 0.177588 0.009275
		CHANNELS 3 Xrotation Yrotation Zrotation
		JOINT spine
		{
			OFFSET 0.000919 0.177588 0.009275
			CHANNELS 3 Xrotation Yrotation Zrotation
			JOINT chest
			{
				OFFSET 0.000456 0.100015 0.004638
				CHANNELS 3 Xrotation Yrotation Zrotation
				JOINT neck
				{
					OFFSET 0.000456 0.100015 0.004638
					CHANNELS 3 Xrotation Yrotation Zrotation
					JOINT head
					{
						OFFSET 0.000924 0.155147 0.009274
						CHANNELS 6 Xposition Yposition Zposition Xrotation Yrotation Zrotation
						End Site
						{
							OFFSET 0.000000 0.153400 0.000000
						}
					}
				}
				JOINT shoulder.L
				{
					OFFSET 0.019937 0.078966 0.057518
					CHANNELS 6 Xposition Yposition Zposition Yrotation Xrotation Zrotation
					JOINT upper_arm.L
					{
						OFFSET 0.177024 -0.020465 -0.095062
						CHANNELS 6 Xposition Yposition Zposition Xrotation Yrotation Zrotation
						JOINT forearm.L
						{
							OFFSET 0.247100 -0.135500 -0.061800
							CHANNELS 3 Xrotation Yrotation Zrotation
							JOINT hand.L
							{
								OFFSET 0.217000 -0.143000 0.039300
								CHANNELS 3 Xrotation Yrotation Zrotation
								JOINT palm.01.L
								{
									OFFSET 0.021770 -0.038291 0.012954
									CHANNELS 6 Xposition Yposition Zposition Yrotation Xrotation Zrotation
									JOINT f_index.01.L
									{
										OFFSET 0.053215 -0.044137 0.008236
										CHANNELS 3 Xrotation Yrotation Zrotation
										JOINT f_index.02.L
										{
											OFFSET 0.036108 -0.024723 -0.010656
											CHANNELS 3 Xrotation Yrotation Zrotation
											JOINT f_index.03.L
											{
												OFFSET 0.021342 -0.014948 -0.010846
												CHANNELS 3 Xrotation Yrotation Zrotation
												End Site
												{
													OFFSET 0.015600 -0.009860 -0.013421
												}
											}
										}
									}
									JOINT thumb.01.L
									{
										OFFSET -0.009090 -0.002348 -0.024223
										CHANNELS 6 Xposition Yposition Zposition Xrotation Yrotation Zrotation
										JOINT thumb.02.L
										{
											OFFSET 0.019713 -0.035076 -0.011120
											CHANNELS 3 Xrotation Yrotation Zrotation
											JOINT thumb.03.L
											{
												OFFSET 0.024877 -0.021748 -0.005176
												CHANNELS 3 Xrotation Yrotation Zrotation
												End Site
												{
													OFFSET 0.016125 -0.013029 -0.001569
												}
											}
										}
									}
								}
								JOINT palm.02.L
								{
									OFFSET 0.032823 -0.025104 0.012281
									CHANNELS 6 Xposition Yposition Zposition Yrotation Xrotation Zrotation
									JOINT f_middle.01.L
									{
										OFFSET 0.055723 -0.038469 0.008037
										CHANNELS 3 Xrotation Yrotation Zrotation
										JOINT f_middle.02.L
										{
											OFFSET 0.038167 -0.027473 -0.015582
											CHANNELS 3 Xrotation Yrotation Zrotation
											JOINT f_middle.03.L
											{
												OFFSET 0.021707 -0.016587 -0.017037
												CHANNELS 3 Xrotation Yrotation Zrotation
												End Site
												{
													OFFSET 0.014112 -0.010584 -0.014294
												}
											}
										}
									}
								}
								JOINT palm.03.L
								{
									OFFSET 0.039230 -0.011402 0.008390
									CHANNELS 6 Xposition Yposition Zposition Yrotation Xrotation Zrotation
									JOINT f_ring.01.L
									{
										OFFSET 0.061796 -0.031470 0.007910
										CHANNELS 3 Xrotation Yrotation Zrotation
										JOINT f_ring.02.L
										{
											OFFSET 0.033092 -0.023401 -0.019127
											CHANNELS 3 Xrotation Yrotation Zrotation
											JOINT f_ring.03.L
											{
												OFFSET 0.021392 -0.015362 -0.017824
												CHANNELS 3 Xrotation Yrotation Zrotation
												End Site
												{
													OFFSET 0.008670 -0.007297 -0.014686
												}
											}
										}
									}
								}
								JOINT palm.04.L
								{
									OFFSET 0.043417 0.002450 0.002889
									CHANNELS 6 Xposition Yposition Zposition Yrotation Xrotation Zrotation
									JOINT f_pinky.01.L
									{
										OFFSET 0.069986 -0.026156 0.003627
										CHANNELS 3 Xrotation Yrotation Zrotation
										JOINT f_pinky.02.L
										{
											OFFSET 0.018520 -0.012813 -0.016429
											CHANNELS 3 Xrotation Yrotation Zrotation
											JOINT f_pinky.03.L
											{
												OFFSET 0.013822 -0.009796 -0.014947
												CHANNELS 3 Xrotation Yrotation Zrotation
												End Site
												{
													OFFSET 0.007238 -0.006103 -0.011657
												}
											}
										}
									}
								}
							}
						}
					}
				}
				JOINT shoulder.R
				{
					OFFSET -0.016662 0.078957 0.057696
					CHANNELS 6 Xposition Yposition Zposition Yrotation Xrotation Zrotation
					JOINT upper_arm.R
					{
						OFFSET -0.176972 -0.020537 -0.095144
						CHANNELS 6 Xposition Yposition Zposition Xrotation Yrotation Zrotation
						JOINT forearm.R
						{
							OFFSET -0.247100 -0.135500 -0.061800
							CHANNELS 3 Xrotation Yrotation Zrotation
							JOINT hand.R
							{
								OFFSET -0.217000 -0.143000 0.039300
								CHANNELS 3 Xrotation Yrotation Zrotation
								JOINT palm.01.R
								{
									OFFSET -0.021773 -0.038278 0.012988
									CHANNELS 6 Xposition Yposition Zposition Yrotation Xrotation Zrotation
									JOINT f_index.01.R
									{
										OFFSET -0.053212 -0.044139 0.008249
										CHANNELS 3 Xrotation Yrotation Zrotation
										JOINT f_index.02.R
										{
											OFFSET -0.036049 -0.024835 -0.010634
											CHANNELS 3 Xrotation Yrotation Zrotation
											JOINT f_index.03.R
											{
												OFFSET -0.021371 -0.014881 -0.010866
												CHANNELS 3 Xrotation Yrotation Zrotation
												End Site
												{
													OFFSET -0.015584 -0.009883 -0.013422
												}
											}
										}
									}
									JOINT thumb.01.R
									{
										OFFSET 0.009113 -0.002381 -0.024211
										CHANNELS 6 Xposition Yposition Zposition Xrotation Yrotation Zrotation
										JOINT thumb.02.R
										{
											OFFSET -0.019694 -0.035097 -0.011088
											CHANNELS 3 Xrotation Yrotation Zrotation
											JOINT thumb.03.R
											{
												OFFSET -0.024867 -0.021762 -0.005168
												CHANNELS 3 Xrotation Yrotation Zrotation
												End Site
												{
													OFFSET -0.016120 -0.013036 -0.001565
												}
											}
										}
									}
								}
								JOINT palm.02.R
								{
									OFFSET -0.032828 -0.025095 0.012286
									CHANNELS 6 Xposition Yposition Zposition Yrotation Xrotation Zrotation
									JOINT f_middle.01.R
									{
										OFFSET -0.055721 -0.038472 0.008040
										CHANNELS 3 Xrotation Yrotation Zrotation
										JOINT f_middle.02.R
										{
											OFFSET -0.038101 -0.027593 -0.015557
											CHANNELS 3 Xrotation Yrotation Zrotation
											JOINT f_middle.03.R
											{
												OFFSET -0.021730 -0.016530 -0.017054
												CHANNELS 3 Xrotation Yrotation Zrotation
												End Site
												{
													OFFSET -0.014096 -0.010608 -0.014293
												}
											}
										}
									}
								}
								JOINT palm.03.R
								{
									OFFSET -0.039192 -0.011488 0.008390
									CHANNELS 6 Xposition Yposition Zposition Yrotation Xrotation Zrotation
									JOINT f_ring.01.R
									{
										OFFSET -0.061839 -0.031387 0.007876
										CHANNELS 3 Xrotation Yrotation Zrotation
										JOINT f_ring.02.R
										{
											OFFSET -0.033068 -0.023437 -0.019125
											CHANNELS 3 Xrotation Yrotation Zrotation
											JOINT f_ring.03.R
											{
												OFFSET -0.021371 -0.015393 -0.017822
												CHANNELS 3 Xrotation Yrotation Zrotation
												End Site
												{
													OFFSET -0.008654 -0.007321 -0.014684
												}
											}
										}
									}
								}
								JOINT palm.04.R
								{
									OFFSET -0.043421 0.002443 0.002845
									CHANNELS 6 Xposition Yposition Zposition Yrotation Xrotation Zrotation
									JOINT f_pinky.01.R
									{
										OFFSET -0.069983 -0.026169 0.003599
										CHANNELS 3 Xrotation Yrotation Zrotation
										JOINT f_pinky.02.R
										{
											OFFSET -0.018501 -0.012842 -0.016428
											CHANNELS 3 Xrotation Yrotation Zrotation
											JOINT f_pinky.03.R
											{
												OFFSET -0.013806 -0.009821 -0.014946
												CHANNELS 3 Xrotation Yrotation Zrotation
												End Site
												{
													OFFSET -0.007226 -0.006121 -0.011655
												}
											}
										}
									}
								}
							}
						}
					}
				}
			}
		}
	}
	JOINT pelvis.L
	{
		OFFSET 0.000000 0.000000 0.000000
		CHANNELS 6 Xposition Yposition Zposition Xrotation Yrotation Zrotation
		JOINT thigh.L
		{
			OFFSET 0.101675 0.001054 -0.000000
			CHANNELS 3 Xrotation Yrotation Zrotation
			JOINT shin.L
			{
				OFFSET 0.000000 -0.534800 0.041000
				CHANNELS 3 Xrotation Yrotation Zrotation
				JOINT foot.L
				{
					OFFSET 0.000000 -0.452000 -0.044800
					CHANNELS 3 Xrotation Yrotation Zrotation
					JOINT toe.L
					{
						OFFSET -0.000000 -0.068500 0.109600
						CHANNELS 3 Xrotation Yrotation Zrotation
						End Site
						{
							OFFSET -0.000000 0.000000 0.067200
						}
					}
				}
				JOINT heel.L
				{
					OFFSET 0.000000 -0.452000 -0.044800
					CHANNELS 3 Xrotation Yrotation Zrotation
					JOINT heel.02.L
					{
						OFFSET -0.038000 -0.085200 0.016200
						CHANNELS 6 Xposition Yposition Zposition Xrotation Yrotation Zrotation
						End Site
						{
							OFFSET 0.080000 -0.000000 0.000000
						}
					}
				}
			}
		}
	}
	JOINT pelvis.R
	{
		OFFSET 0.000000 0.000000 0.000000
		CHANNELS 6 Xposition Yposition Zposition Xrotation Yrotation Zrotation
		JOINT thigh.R
		{
			OFFSET -0.094325 0.001054 0.000000
			CHANNELS 3 Xrotation Yrotation Zrotation
			JOINT shin.R
			{
				OFFSET 0.000000 -0.534800 0.041000
				CHANNELS 3 Xrotation Yrotation Zrotation
				JOINT foot.R
				{
					OFFSET 0.000000 -0.452000 -0.044800
					CHANNELS 3 Xrotation Yrotation Zrotation
					JOINT toe.R
					{
						OFFSET -0.000000 -0.068500 0.109600
						CHANNELS 3 Xrotation Yrotation Zrotation
						End Site
						{
							OFFSET -0.000000 0.000000 0.067200
						}
					}
				}
				JOINT heel.R
				{
					OFFSET 0.000000 -0.452000 -0.044800
					CHANNELS 3 Xrotation Yrotation Zrotation
					JOINT heel.02.R
					{
						OFFSET 0.038000 -0.085200 0.016200
						CHANNELS 6 Xposition Yposition Zposition Xrotation Yrotation Zrotation
						End Site
						{
							OFFSET -0.080000 0.000000 -0.000000
						}
					}
				}
			}
		}
	}
}
MOTION
Frames: 4
Frame Time: 0.041667
-0.017141 0.229871 -0.011657 82.551818 38.274143 85.044605 0.000002 -0.000000 -0.000000 -0.000006 0.000000 -0.000000 -0.000002 0.000002 -0.000001 -0.000001 0.000000 0.000000 0.000924 0.155148 0.009274 -16.127236 0.059449 0.770275 0.019937 0.078966 0.057518 -3.935376 5.376241 44.703380 0.177025 -0.020465 -0.095062 -60.717998 4.784383 -46.394060 -17.760143 -21.221464 -5.718644 -0.000003 -0.000000 0.000001 0.021770 -0.038291 0.012954 0.000003 0.000004 -0.000001 0.000001 -0.000001 -0.000000 0.000000 -0.000001 0.000007 -0.000000 -0.000001 0.000006 -0.009090 -0.002348 -0.024223 0.000004 -0.000003 0.000002 -0.000000 0.000000 -0.000004 -0.000004 -0.000002 0.000001 0.032823 -0.025104 0.012281 0.000001 0.000002 0.000002 -0.000003 -0.000001 -0.000004 -0.000003 -0.000002 -0.000002 -0.000001 -0.000003 0.000000 0.039230 -0.011402 0.008390 0.000001 0.000001 0.000001 0.000004 0.000000 -0.000000 0.000001 0.000004 0.000003 -0.000000 -0.000005 0.000003 0.043417 0.002450 0.002889 0.000002 0.000004 -0.000004 0.000000 -0.000007 0.000003 -0.000000 0.000000 0.000001 -0.000003 -0.000001 -0.000001 -0.016662 0.078957 0.057696 9.233837 3.420083 -37.294008 -0.176972 -0.020537 -0.095144 -65.289150 -24.594456 57.573495 -8.403963 8.438270 18.885275 -0.000001 0.000000 0.000004 -0.021773 -0.038278 0.012988 0.000000 -0.000000 -0.000003 -0.000004 0.000004 -0.000003 0.000001 -0.000004 -0.000003 0.000002 0.000000 0.000004 0.009114 -0.002381 -0.024212 -0.000001 0.000002 -0.000003 0.000001 0.000003 -0.000001 0.000002 -0.000001 -0.000003 -0.032828 -0.025095 0.012286 0.000000 -0.000003 0.000001 -0.000001 0.000003 0.000001 0.000001 -0.000003 0.000001 -0.000003 0.000006 -0.000005 -0.039192 -0.011488 0.008390 0.000002 0.000003 -0.000000 -0.000000 -0.000001 -0.000002 -0.000002 -0.000000 -0.000002 0.000001 -0.000003 -0.000001 -0.043421 0.002443 0.002844 -0.000000 -0.000001 -0.000001 -0.000003 0.000006 -0.000001 -0.000002 -0.000006 0.000000 -0.000001 -0.000000 0.000002 0.000000 0.000000 -0.000000 -1.885139 1.423521 -17.195753 -42.324421 -1.148510 -12.331704 46.237864 0.275979 -2.783431 0.000005 -0.000001 -0.000002 -0.000002 0.000000 0.000001 0.000002 -0.000001 -0.000001 -0.038000 -0.085200 0.016200 0.000004 0.000002 0.000002 0.000000 0.000000 -0.000000 -1.794896 1.396622 -15.963790 -32.313297 0.416378 2.716683 37.601622 2.451593 -25.591757 -0.000002 0.000003 0.000001 -0.000002 -0.000002 -0.000002 0.000002 0.000003 0.000000 0.038000 -0.085200 0.016200 0.000006 0.000004 -0.000006 
-0.018412 0.231947 -0.011680 87.346959 38.251296 80.410615 0.000000 0.000000 -0.000000 0.000003 0.000001 0.000000 -0.000004 0.000000 -0.000001 -0.000005 0.000001 0.000000 0.000924 0.155148 0.009274 -17.467780 0.064317 0.467949 0.019937 0.078966 0.057518 0.847101 5.399975 42.151471 0.177024 -0.020466 -0.095062 -65.545603 5.089819 -46.373880 -16.634758 -18.613490 -8.311615 -0.000005 -0.000004 0.000000 0.021770 -0.038291 0.012954 -0.000000 0.000002 0.000001 -0.000000 0.000001 -0.000002 -0.000000 0.000001 0.000008 -0.000000 0.000001 -0.000000 -0.009090 -0.002348 -0.024223 -0.000001 -0.000003 -0.000003 -0.000004 -0.000000 0.000001 -0.000004 -0.000001 0.000001 0.032823 -0.025104 0.012281 -0.000004 0.000001 0.000004 0.000003 0.000003 -0.000003 -0.000006 -0.000003 -0.000001 -0.000000 0.000003 -0.000001 0.039230 -0.011402 0.008390 -0.000002 0.000002 0.000006 0.000001 0.000001 -0.000002 -0.000001 0.000006 -0.000000 0.000003 0.000001 -0.000000 0.043417 0.002450 0.002889 0.000002 0.000001 -0.000000 -0.000001 -0.000001 -0.000000 0.000002 -0.000001 0.000002 0.000001 0.000001 0.000001 -0.016662 0.078957 0.057696 15.971660 4.652156 -41.509102 -0.176972 -0.020537 -0.095144 -67.304056 -23.850957 56.110059 -5.769724 6.609170 18.202871 -0.000001 0.000004 0.000001 -0.021773 -0.038278 0.012988 -0.000001 0.000001 -0.000003 0.000001 0.000001 0.000002 -0.000003 -0.000004 -0.000001 0.000002 -0.000002 -0.000001 0.009114 -0.002381 -0.024211 0.000002 -0.000002 -0.000005 0.000003 -0.000004 0.000002 0.000002 0.000006 -0.000003 -0.032828 -0.025095 0.012286 -0.000001 -0.000000 -0.000001 0.000001 0.000000 0.000001 -0.000003 0.000005 -0.000002 -0.000002 -0.000002 -0.000000 -0.039192 -0.011488 0.008390 -0.000002 0.000004 0.000001 -0.000002 0.000003 -0.000003 -0.000002 -0.000006 -0.000000 -0.000002 -0.000001 -0.000000 -0.043421 0.002443 0.002845 -0.000001 0.000004 -0.000001 -0.000000 0.000006 -0.000002 -0.000001 -0.000001 -0.000000 -0.000002 -0.000002 0.000002 0.000000 0.000000 0.000000 -1.851095 1.096520 -13.703263 -49.138242 -1.263643 -13.567843 45.977483 0.549097 -5.546748 0.000000 -0.000000 -0.000004 -0.000004 -0.000004 0.000002 0.000003 -0.000002 -0.000001 -0.038000 -0.085200 0.016200 0.000002 -0.000002 0.000002 -0.000000 0.000000 0.000000 -1.773797 1.078521 -12.470548 -38.755590 0.324509 1.119212 39.549999 2.776023 -29.288302 -0.000002 -0.000003 -0.000004 -0.000003 0.000004 0.000002 0.000005 -0.000002 -0.000000 0.038000 -0.085200 0.016200 -0.000002 -0.000000 0.000002 
-0.018328 0.230826 -0.039258 -1.446493 -6.484979 90.018301 -0.000000 0.000000 -0.000000 -0.000000 0.000000 -0.000000 -0.000000 -0.000000 0.000000 -0.000000 0.000000 0.000000 0.000924 0.155148 0.009274 -12.745994 0.025702 -21.625784 0.019937 0.078966 0.057518 -18.050998 0.051585 29.306914 0.177025 -0.020465 -0.095062 -8.156087 14.344109 -57.199091 5.305940 6.118544 -2.624247 0.000000 0.000002 0.000001 0.021770 -0.038291 0.012954 0.000001 0.000001 -0.000004 0.000000 -0.000000 -0.000000 -0.000001 -0.000000 0.000007 -0.000001 0.000002 0.000006 -0.009090 -0.002348 -0.024223 0.000000 -0.000002 0.000003 -0.000000 -0.000001 -0.000000 -0.000001 -0.000000 -0.000001 0.032823 -0.025104 0.012281 0.000000 0.000001 0.000002 -0.000002 -0.000000 -0.000009 -0.000002 -0.000003 0.000001 0.000000 0.000001 0.000001 0.039230 -0.011402 0.008390 0.000001 0.000000 0.000001 0.000001 -0.000000 -0.000000 -0.000002 0.000003 0.000003 0.000004 -0.000003 0.000002 0.043417 0.002450 0.002889 0.000000 0.000001 -0.000005 -0.000003 -0.000004 -0.000002 -0.000001 0.000001 -0.000003 -0.000001 -0.000002 -0.000003 -0.016662 0.078957 0.057696 -14.969792 2.922260 -24.577795 -0.176972 -0.020537 -0.095144 2.315817 -12.677157 47.963033 0.497514 1.682903 9.806231 0.000004 0.000000 0.000004 -0.021773 -0.038278 0.012988 -0.000001 -0.000000 0.000000 0.000002 0.000004 -0.000003 -0.000001 0.000003 -0.000001 0.000001 0.000000 0.000006 0.009113 -0.002381 -0.024211 0.000003 -0.000000 0.000001 -0.000003 -0.000005 0.000002 0.000001 0.000001 -0.000001 -0.032828 -0.025095 0.012286 -0.000003 -0.000000 -0.000005 -0.000001 0.000004 -0.000001 -0.000000 -0.000001 -0.000002 -0.000003 -0.000003 -0.000004 -0.039192 -0.011488 0.008390 -0.000004 0.000002 -0.000000 0.000002 0.000003 -0.000007 -0.000004 -0.000001 -0.000004 0.000000 0.000003 0.000001 -0.043421 0.002443 0.002845 -0.000002 0.000001 -0.000003 0.000000 0.000003 -0.000001 -0.000007 0.000003 0.000002 0.000004 0.000001 0.000001 -0.000000 0.000000 0.000000 -1.947815 -0.008367 -0.885036 -48.894773 -0.320076 -1.010207 58.473728 -0.573403 5.797430 -0.000003 0.000000 -0.000000 0.000002 0.000000 -0.000000 -0.000002 0.000000 0.000000 -0.038000 -0.085200 0.016200 -0.000002 0.000000 0.000001 -0.000000 0.000000 0.000000 -1.906315 -0.008581 0.349153 -59.232432 0.669867 4.544611 76.513500 0.249531 -2.516601 -0.000003 0.000000 -0.000000 0.000001 -0.000000 0.000000 0.000002 -0.000001 -0.000000 0.038000 -0.085200 0.016200 -0.000004 -0.000001 0.000000 
-0.021042 0.238069 -0.009397 93.201442 33.144893 74.526346 0.000003 0.000000 -0.000001 0.000006 0.000000 -0.000000 0.000000 0.000001 0.000001 0.000001 -0.000000 0.000001 0.000924 0.155148 0.009274 -8.100360 0.030635 -0.067612 0.019937 0.078966 0.057518 1.750689 4.286298 38.147699 0.177025 -0.020465 -0.095062 -61.600274 10.413484 -50.484920 -14.075149 -15.673922 -9.419885 -0.000002 -0.000000 -0.000000 0.021770 -0.038291 0.012954 0.000003 0.000001 -0.000002 -0.000002 -0.000000 -0.000000 -0.000003 -0.000000 0.000010 0.000000 0.000003 0.000000 -0.009090 -0.002348 -0.024224 0.000003 0.000001 -0.000005 0.000000 -0.000003 -0.000002 -0.000004 -0.000002 0.000001 0.032823 -0.025104 0.012281 0.000000 0.000001 0.000002 -0.000006 -0.000003 -0.000000 -0.000005 -0.000001 0.000005 -0.000001 -0.000002 0.000004 0.039230 -0.011402 0.008390 0.000003 -0.000000 0.000004 0.000002 0.000001 0.000003 -0.000001 0.000001 0.000001 0.000003 0.000002 0.000002 0.043417 0.002450 0.002889 0.000000 -0.000001 -0.000002 -0.000002 -0.000001 -0.000000 -0.000001 -0.000001 -0.000001 -0.000001 0.000002 0.000002 -0.016662 0.078956 0.057696 19.734081 3.688855 -39.032967 -0.176972 -0.020537 -0.095144 -71.999633 -26.286601 55.321875 6.005616 -4.557120 11.022047 -0.000004 0.000002 -0.000000 -0.021773 -0.038278 0.012988 0.000001 -0.000002 -0.000003 -0.000005 0.000001 -0.000005 0.000000 -0.000003 -0.000008 0.000002 0.000000 0.000001 0.009114 -0.002381 -0.024211 -0.000000 -0.000001 -0.000001 -0.000001 -0.000003 -0.000003 -0.000002 0.000000 -0.000006 -0.032828 -0.025095 0.012286 0.000002 -0.000002 -0.000001 0.000005 -0.000000 -0.000003 0.000000 0.000002 -0.000002 -0.000003 0.000001 -0.000004 -0.039192 -0.011488 0.008390 0.000000 0.000000 -0.000000 0.000003 0.000004 -0.000002 0.000003 -0.000005 0.000003 0.000001 0.000003 -0.000000 -0.043421 0.002443 0.002844 0.000003 -0.000001 -0.000001 -0.000006 0.000007 -0.000003 -0.000001 -0.000003 0.000002 -0.000004 0.000000 0.000002 0.000000 0.000000 0.000000 -1.910859 1.166534 -14.320975 -57.558926 -1.096637 -10.962127 55.891274 0.587843 -5.939642 0.000002 0.000003 -0.000001 0.000004 0.000001 -0.000000 -0.000002 0.000001 0.000003 -0.038000 -0.085200 0.016200 0.000002 -0.000003 0.000000 -0.000000 -0.000000 0.000000 -1.829225 1.146598 -13.088440 -47.289491 0.482756 2.670057 47.763072 2.619855 -27.492917 0.000000 0.000001 -0.000003 0.000001 0.000001 -0.000003 0.000007 -0.000000 -0.000001 0.038000 -0.085200 0.016200 0.000000 -0.000001 -0.000002 
